HIERARCHY
ROOT Hips
{
 OFFSET 0.000000 0.000000 0.000000
 CHANNELS 6 Xposition Yposition Zposition Yrotation Xrotation Zrotation
 JOINT Chest
 {
  OFFSET 0.000000 10.385163 0.011643
  CHANNELS 3 Yrotation Xrotation Zrotation
  JOINT Chest2
  {
   OFFSET 0.000000 11.579334 -0.021150
   CHANNELS 3 Yrotation Xrotation Zrotation
   JOINT Chest3
   {
    OFFSET 0.000000 10.463212 0.000000
    CHANNELS 3 Yrotation Xrotation Zrotation
    JOINT Chest4
    {
     OFFSET 0.000000 10.463212 0.000000
     CHANNELS 3 Yrotation Xrotation Zrotation
     JOINT Neck
     {
      OFFSET 0.000000 14.544862 0.000000
      CHANNELS 3 Yrotation Xrotation Zrotation
      JOINT Head
      {
       OFFSET 0.000000 9.730630 -0.050295
       CHANNELS 3 Yrotation Xrotation Zrotation
       End Site
       {
        OFFSET 0.000000 18.757589 -0.026270
       }
      }
     }
     JOINT RightCollar
     {
      OFFSET -2.985174 8.102313 0.000000
      CHANNELS 3 Yrotation Xrotation Zrotation
      JOINT RightShoulder
      {
       OFFSET -13.558590 0.000000 0.000000
       CHANNELS 3 Yrotation Xrotation Zrotation
       JOINT RightElbow
       {
        OFFSET -28.208579 0.000000 0.000000
        CHANNELS 3 Yrotation Xrotation Zrotation
        JOINT RightWrist
        {
         OFFSET -23.322907 0.000000 0.010349
         CHANNELS 3 Yrotation Xrotation Zrotation
         End Site
         {
          OFFSET -17.603338 0.000000 0.000000
         }
        }
       }
      }
     }
     JOINT LeftCollar
     {
      OFFSET 2.985174 8.102313 0.000000
      CHANNELS 3 Yrotation Xrotation Zrotation
      JOINT LeftShoulder
      {
       OFFSET 13.558590 0.000000 0.000000
       CHANNELS 3 Yrotation Xrotation Zrotation
       JOINT LeftElbow
       {
        OFFSET 28.208579 0.000000 0.000000
        CHANNELS 3 Yrotation Xrotation Zrotation
        JOINT LeftWrist
        {
         OFFSET 23.322907 0.000000 0.010349
         CHANNELS 3 Yrotation Xrotation Zrotation
         End Site
         {
          OFFSET 17.603338 0.000000 0.000000
         }
        }
       }
      }
     }
    }
   }
  }
 }
 JOINT RightHip
 {
  OFFSET -8.341224 -0.057053 -0.005822
  CHANNELS 3 Yrotation Xrotation Zrotation
  JOINT RightKnee
  {
   OFFSET 0.000000 -44.280013 0.005508
   CHANNELS 3 Yrotation Xrotation Zrotation
   JOINT RightAnkle
   {
    OFFSET 0.000000 -43.261728 0.009315
    CHANNELS 3 Yrotation Xrotation Zrotation
    JOINT RightToe
    {
     OFFSET 0.000000 -8.082955 18.257715
     CHANNELS 3 Yrotation Xrotation Zrotation
     End Site
     {
      OFFSET 0.000000 -1.634678 7.189621
     }
    }
   }
  }
 }
 JOINT LeftHip
 {
  OFFSET 8.341224 -0.057053 -0.005822
  CHANNELS 3 Yrotation Xrotation Zrotation
  JOINT LeftKnee
  {
   OFFSET 0.000000 -44.280013 0.005508
   CHANNELS 3 Yrotation Xrotation Zrotation
   JOINT LeftAnkle
   {
    OFFSET 0.000000 -43.261728 0.009315
    CHANNELS 3 Yrotation Xrotation Zrotation
    JOINT LeftToe
    {
     OFFSET 0.000000 -8.082955 18.257715
     CHANNELS 3 Yrotation Xrotation Zrotation
     End Site
     {
      OFFSET 0.000000 -1.634678 7.189621
     }
    }
   }
  }
 }
}
MOTION
Frames: 14
Frame Time: 0.016667
-221.273992 95.217274 -773.338585 -58.806363 -1.591520 -6.605914 -4.825516 10.075846 2.817169 -2.198153 4.448666 1.352621 -2.198780 4.448570 1.352954 -1.658636 3.331561 1.030528 6.087496 5.290812 -1.922186 13.423840 -25.816007 -7.291591 1.157278 -2.055329 4.289671 -17.860685 -0.999150 62.844502 73.626412 0.720297 38.852253 8.652398 -4.663124 1.536319 -0.852449 -4.539722 -12.026889 1.997842 -7.567496 -64.474239 -63.432959 -12.050949 -46.419248 1.415018 -5.986850 -11.721057 -9.844978 -12.214216 0.298874 2.366192 14.189340 2.618583 -4.436815 -0.454425 8.501546 -0.000000 -0.000000 -0.000000 2.842250 6.304773 1.343700 -2.357494 49.041840 0.920666 2.927777 13.567294 -8.698638 0.862446 -27.951510 6.767695
-224.116442 94.375154 -772.618155 -57.511757 -3.048500 -7.469991 -4.599727 11.451053 3.097886 -2.111273 5.058380 1.484154 -2.111920 5.058205 1.484482 -1.595749 3.788479 1.130449 5.863348 4.297994 -1.977395 13.179560 -27.670442 -7.464583 1.316578 -4.938681 5.081968 -14.634523 -2.179960 62.521892 70.566664 0.595060 37.641046 9.174921 -4.131202 0.077597 -0.967193 -7.282894 -12.415749 2.187977 -6.193790 -65.056948 -60.452545 -8.740504 -43.508331 0.696554 -6.044790 -10.589382 -5.020189 -11.946666 1.493045 -0.880977 20.815267 1.614364 -8.398415 -5.468021 5.868060 -0.000000 -0.000000 0.000000 2.302963 4.406305 2.425934 2.546115 54.338535 4.477310 3.057115 12.959767 -6.755298 0.387873 -27.993012 2.793631
-226.908215 93.696922 -771.713489 -56.008104 -4.123590 -8.003509 -4.342244 12.485784 3.301032 -2.007373 5.518355 1.575610 -2.007373 5.518355 1.575610 -1.518641 4.133682 1.198983 5.551625 3.566740 -1.961467 12.672062 -29.060382 -7.393744 1.454356 -6.918304 5.591103 -11.482320 -3.500910 62.725845 68.434742 0.973567 35.960199 9.889743 -3.503857 -1.108353 -1.200616 -9.078205 -12.721361 1.943027 -5.087226 -65.992796 -57.388581 -5.662986 -39.737639 -0.006189 -5.795847 -8.975893 -2.398476 -11.421860 2.583142 -2.906247 26.213233 0.742616 -11.618541 -9.987497 4.485025 0.000000 0.000000 0.000000 2.408989 2.191193 3.167448 7.211260 58.531824 8.855146 2.829171 11.801156 -4.701526 -0.046804 -28.334167 -0.362920
-229.672131 93.221455 -770.451375 -54.170859 -4.584729 -7.865009 -4.147703 12.930737 3.311610 -1.924031 5.717206 1.578225 -1.923904 5.717036 1.578097 -1.456434 4.282772 1.200558 5.138891 3.329935 -1.823958 11.783885 -29.566670 -6.910322 1.661370 -7.043187 5.701240 -8.436191 -5.408153 63.806375 67.781950 3.043536 33.114781 10.706763 -2.461985 -1.438754 -1.707361 -9.367867 -12.871198 0.444544 -4.226721 -67.727016 -53.791150 -2.758806 -33.909913 -0.621799 -4.715206 -6.186845 -3.984748 -10.324102 3.257331 -2.120471 29.671573 -0.199825 -13.189000 -13.426944 4.465538 0.003854 0.151909 -0.133539 3.879515 -0.458590 3.282543 9.781692 61.470020 12.873905 1.866277 10.059132 -2.556366 -0.191297 -29.398884 -2.215523
-232.385371 92.909877 -769.005026 -52.149302 -4.701656 -7.365460 -3.943747 13.050765 3.211016 -1.832208 5.772496 1.528988 -1.832413 5.772033 1.528922 -1.387771 4.324175 1.163067 4.649283 3.350572 -1.600846 10.631939 -29.614765 -6.151886 1.891550 -6.243323 5.635886 -5.515759 -7.699720 65.167542 67.640082 5.972031 29.929724 11.720706 -1.326311 -1.539118 -2.314445 -8.711427 -12.863300 -1.542904 -3.621336 -69.827315 -50.004105 -0.585245 -27.170204 -1.375179 -3.481738 -2.831526 -7.706615 -8.814537 3.587954 -0.009733 32.000025 -1.286306 -13.963761 -16.375230 5.273889 0.008271 0.304142 -0.266677 6.142617 -3.379442 2.894813 10.957091 63.436782 16.386992 0.341157 7.883256 -0.340618 -0.091461 -30.911407 -3.368438
-235.033093 92.817295 -767.589759 -50.338850 -4.615558 -6.889905 -3.537826 12.959732 3.086153 -1.648688 5.736372 1.461957 -1.648688 5.736372 1.461957 -1.249252 4.298406 1.111080 4.089546 3.445280 -1.318220 9.288373 -29.526830 -5.217381 1.887648 -5.489631 5.451107 -3.246289 -9.752716 66.178815 67.887792 7.115085 28.266262 12.806618 -1.040366 -1.957266 -2.601132 -7.785730 -12.746789 -1.843429 -3.150247 -70.953369 -48.093829 0.424608 -23.430517 -2.038812 -2.957561 -1.011463 -10.497181 -7.124493 3.625673 1.289179 33.140882 -2.118486 -14.469890 -18.326770 5.995623 0.000000 -0.000000 0.000000 7.833470 -6.279796 2.179187 11.199170 64.543062 18.492897 -0.743291 5.615663 1.196287 0.106940 -31.818043 -3.971738
-237.598842 92.968845 -766.327753 -48.804961 -4.290083 -6.572006 -2.826828 12.639573 2.942475 -1.328185 5.600642 1.377133 -1.327578 5.601342 1.377132 -1.007138 4.198568 1.044176 3.415477 3.574419 -0.946251 7.654987 -29.374589 -4.027764 1.460899 -5.053628 5.044785 -2.044224 -11.285878 66.881865 69.006148 4.532383 28.965781 14.098855 -2.238763 -3.090397 -2.335469 -6.493565 -12.475360 1.057433 -3.291962 -70.357064 -49.305178 0.608852 -25.531237 -2.220570 -3.471492 -2.185389 -10.996657 -5.203662 3.436971 0.765298 32.730814 -2.366156 -14.794618 -19.155459 6.147292 -0.022522 -0.804342 1.184260 8.681510 -9.271528 1.111220 10.568303 64.956138 19.021917 -0.973890 3.246432 1.797496 0.328258 -32.293210 -3.988309
-240.099074 93.339391 -765.096830 -47.479491 -3.751127 -6.261387 -1.916362 12.115740 2.740142 -0.918019 5.374300 1.261250 -0.917578 5.374840 1.261262 -0.698512 4.029629 0.953309 2.673655 3.779673 -0.514124 5.841240 -29.073166 -2.669259 0.804131 -4.620305 4.495945 -1.518493 -12.486100 67.461495 71.003375 -0.056543 30.644088 15.745470 -4.049219 -4.711538 -1.722355 -4.982479 -12.010371 5.669960 -3.863024 -68.878184 -51.935134 -0.053750 -31.117439 -1.875176 -4.525277 -4.901059 -10.598013 -3.051934 3.086925 -0.405453 31.093576 -2.224526 -14.765496 -19.004908 6.154755 -0.061213 -2.075850 2.760352 8.983427 -12.268416 -0.182399 8.624115 64.677543 17.661674 -0.654659 0.764854 1.795140 0.444456 -32.192359 -3.326727
-242.568315 93.908634 -763.745779 -46.557624 -3.208806 -5.935613 -0.924716 11.556556 2.522358 -0.471942 5.131199 1.138303 -0.471942 5.131199 1.138303 -0.363301 3.847540 0.857128 2.000182 4.002167 -0.146291 4.215294 -28.713928 -1.492738 0.220517 -4.310756 4.052798 -0.958823 -13.317812 67.678305 73.595253 -3.856345 31.912832 17.410395 -5.254934 -6.266594 -1.049054 -4.270786 -11.556722 9.726437 -3.516977 -67.222460 -54.130054 -1.415708 -36.217606 -1.464921 -5.409453 -7.009663 -10.351230 -0.926392 2.677335 -1.055695 29.194177 -2.016648 -14.502247 -17.754870 6.542131 -0.116951 -4.145718 3.558449 8.079151 -14.832640 -1.039460 5.730921 63.492649 13.958557 0.280810 -1.565207 1.373777 0.297611 -29.955565 -2.085074
-245.004598 94.735698 -762.209113 -46.374136 -2.728079 -5.561563 0.241803 10.990239 2.297911 0.052047 4.885502 1.010657 0.052024 4.885680 1.010690 0.030933 3.664602 0.757182 1.430684 4.216464 0.111963 2.879620 -28.342013 -0.614257 -0.179917 -4.321011 3.795627 0.024113 -13.549711 67.329441 77.005151 -5.601357 32.426764 18.780983 -5.425191 -7.473902 -0.360073 -5.093224 -11.347403 12.286722 -1.141704 -65.007900 -55.699109 -3.538973 -39.399023 -1.508095 -5.768298 -7.752680 -10.603776 1.082485 2.164318 -0.541725 27.243434 -1.937599 -14.022945 -15.220272 7.662688 -0.161100 -7.296671 2.904643 4.793625 -16.954723 -0.838436 2.484973 61.325185 7.365962 2.368739 -3.823729 0.589010 0.070913 -23.873885 0.191775
-247.409891 95.761460 -760.552318 -46.593076 -2.235229 -5.186640 1.491252 10.386076 2.062549 0.613456 4.622684 0.879337 0.613507 4.623105 0.879423 0.453311 3.468649 0.654637 0.928280 4.449270 0.304925 1.727946 -27.919447 0.083377 -0.516608 -4.484408 3.617666 1.076162 -13.341875 66.711279 80.952538 -6.379566 32.749518 19.900984 -5.130031 -8.467651 0.332959 -6.677690 -11.338498 14.398488 2.133345 -62.107308 -57.048710 -6.159297 -42.017517 -1.749937 -5.900829 -7.949543 -11.015962 3.045173 1.511752 0.418006 25.026632 -1.905556 -13.189645 -11.618815 9.191060 -0.127640 -11.228371 1.448972 0.131796 -18.647107 0.102921 0.317370 57.708823 0.444385 5.203281 -5.994498 -0.367034 0.112529 -15.655970 2.863365
-249.824624 96.788249 -758.820647 -46.406172 -1.739109 -4.908601 2.428705 9.813548 1.864307 1.035770 4.371210 0.773897 1.035770 4.371210 0.773897 0.770907 3.279736 0.572722 0.519170 4.718731 0.443657 0.806434 -27.423025 0.608190 -0.833313 -4.409757 3.507604 1.809673 -13.291092 66.240864 84.460344 -6.927518 33.231131 20.788177 -4.914083 -9.190217 0.768282 -7.740917 -11.321871 16.717972 4.670857 -59.501929 -58.195557 -8.080201 -44.070989 -1.830879 -5.932697 -7.888648 -11.583860 4.933703 0.807789 0.927545 22.879415 -1.846412 -11.907649 -7.434022 10.648473 -0.000792 -15.386875 0.006119 -3.249663 -19.616614 0.844149 -0.002712 52.392669 -3.410744 7.401265 -7.623076 -1.282914 0.238825 -8.849420 4.325577
-252.268810 97.835139 -757.039373 -45.370474 -1.202826 -4.746107 2.840813 9.279876 1.712542 1.224087 4.134407 0.701447 1.224079 4.133993 0.701328 0.912866 3.101561 0.517380 0.216979 5.036183 0.545738 0.131670 -26.833705 0.989259 -1.156603 -3.969986 3.533851 2.010183 -13.648961 66.029095 87.249156 -7.533627 34.092672 21.510880 -5.103713 -9.577890 0.808322 -8.020763 -11.160276 19.657138 6.150339 -57.579342 -59.418526 -8.724862 -45.569857 -1.593372 -5.877547 -7.462218 -12.331820 6.770508 0.102840 0.326291 20.759218 -1.709043 -9.915172 -2.391639 11.961370 0.202109 -20.029828 -1.227735 -4.123227 -19.704972 0.878369 0.280464 45.016656 -4.298547 8.520985 -8.409493 -2.401865 0.077690 -4.717417 3.507733
-254.722436 98.883056 -755.183222 -43.931814 -0.666564 -4.665032 2.939498 8.767690 1.605363 1.272279 3.906665 0.655578 1.272361 3.906477 0.655499 0.949742 2.931074 0.483223 0.010118 5.390320 0.597537 -0.314722 -26.172569 1.208178 -1.453825 -3.304173 3.650810 1.888783 -14.181112 65.928142 89.554718 -8.109124 35.224056 22.096435 -5.511083 -9.726729 0.606337 -7.774521 -10.902575 22.725636 7.085361 -56.219452 -60.795836 -8.697060 -46.429924 -1.238340 -5.687193 -6.756240 -13.222049 8.549297 -0.613580 -0.693216 18.731012 -1.428516 -7.439549 3.217690 13.322169 0.496640 -24.897134 -2.491033 -3.656319 -19.115005 0.531352 0.482482 36.292611 -4.192118 9.150108 -8.547570 -3.691109 -0.069407 -1.887725 1.493838
